# xmcd
#
# Track frame offsets: 
#        182
#        12807
#        24137
#        35127
#        46437
#        62490
#        75982
#        88175
#        101020
#        114200
#        129102
#        140617
#        157000
#        168647
#        179872
#        192005
#        202162
#        213100
#        224222
#        236687
#        245047
#        256165
#
# Disc length: 3587 seconds
#
# Revision: 1
# Processed by: cddbd v1.5.2PL0 Copyright (c) Steve Scherf et al.
# Submitted via: ExactAudioCopy v1.1
#
DISCID=3a0e0116
DTITLE=Willie Nelson - Country Classics Willie Nelson CD3
DYEAR=1900
DGENRE=Country
TTITLE0=Mr Record Man
TTITLE1=The Party's Over
TTITLE2=I'm A memory
TTITLE3=Why Are You Pickin' On Me
TTITLE4=Still Is Still Moving To Me
TTITLE5=Three Days
TTITLE6=You Ought To Hear Me Cry
TTITLE7=The Words Don't Fit The Picture
TTITLE8=My Own Peculiar Way
TTITLE9=She's Not For You
TTITLE10=Night Life
TTITLE11=Valentine
TTITLE12=Undo The Right
TTITLE13=Half A Man
TTITLE14=Funny How Time Slips Away
TTITLE15=Touch Me
TTITLE16=Hello Walls
TTITLE17=One Step Beyond
TTITLE18=Country Willie
TTITLE19=Take My Word
TTITLE20=Home Motel
TTITLE21=Crazy
EXTD=Reader's digest collection\nWillie Nelson disc 3\n
EXTT0=
EXTT1=
EXTT2=
EXTT3=
EXTT4=
EXTT5=
EXTT6=
EXTT7=
EXTT8=
EXTT9=
EXTT10=
EXTT11=
EXTT12=
EXTT13=
EXTT14=
EXTT15=
EXTT16=
EXTT17=
EXTT18=
EXTT19=
EXTT20=
EXTT21=
PLAYORDER=
